<?xml version="1.0" encoding="utf-8"?>
<svg width="176px" height="80px" viewBox="0 0 176 80" version="1.1" xmlns:xlink="http://www.w3.org/1999/xlink" xmlns="http://www.w3.org/2000/svg">
  <g id="Group-8">
    <path d="M7.999 0L168.001 0Q168.197 0 168.393 0.00963514Q168.59 0.0192703 168.785 0.0385174Q168.98 0.0577644 169.175 0.0865771Q169.369 0.11539 169.562 0.153699Q169.754 0.192007 169.945 0.23972Q170.135 0.287433 170.323 0.344434Q170.511 0.401436 170.696 0.467589Q170.881 0.533742 171.062 0.608888Q171.243 0.684033 171.421 0.76799Q171.599 0.851946 171.772 0.944512Q171.945 1.03708 172.113 1.13803Q172.282 1.23898 172.445 1.34807Q172.608 1.45717 172.766 1.57414Q172.924 1.69112 173.076 1.81569Q173.227 1.94026 173.373 2.07213Q173.518 2.204 173.657 2.34285Q173.796 2.4817 173.928 2.6272Q174.06 2.7727 174.184 2.92449Q174.309 3.07628 174.426 3.234Q174.543 3.39172 174.652 3.55499Q174.761 3.71826 174.862 3.88669Q174.963 4.05512 175.055 4.2283Q175.148 4.40148 175.232 4.57899Q175.316 4.7565 175.391 4.93791Q175.466 5.11933 175.532 5.30422Q175.599 5.4891 175.656 5.67701Q175.713 5.86492 175.76 6.0554Q175.808 6.24588 175.846 6.43847Q175.885 6.63106 175.913 6.8253Q175.942 7.01954 175.961 7.21496Q175.981 7.41038 175.99 7.60651Q176 7.80264 176 7.999L176 72.001Q176 72.1974 175.99 72.3935Q175.981 72.5896 175.961 72.785Q175.942 72.9805 175.913 73.1747Q175.885 73.3689 175.846 73.5615Q175.808 73.7541 175.76 73.9446Q175.713 74.1351 175.656 74.323Q175.599 74.5109 175.532 74.6958Q175.466 74.8807 175.391 75.0621Q175.316 75.2435 175.232 75.421Q175.148 75.5985 175.055 75.7717Q174.963 75.9449 174.862 76.1133Q174.761 76.2817 174.652 76.445Q174.543 76.6083 174.426 76.766Q174.309 76.9237 174.184 77.0755Q174.06 77.2273 173.928 77.3728Q173.796 77.5183 173.657 77.6571Q173.518 77.796 173.373 77.9279Q173.227 78.0597 173.076 78.1843Q172.924 78.3089 172.766 78.4259Q172.608 78.5428 172.445 78.6519Q172.282 78.761 172.113 78.862Q171.945 78.9629 171.772 79.0555Q171.599 79.148 171.421 79.232Q171.243 79.316 171.062 79.3911Q170.881 79.4662 170.696 79.5324Q170.511 79.5985 170.323 79.6556Q170.135 79.7126 169.945 79.7603Q169.754 79.808 169.562 79.8463Q169.369 79.8846 169.175 79.9134Q168.98 79.9422 168.785 79.9615Q168.59 79.9807 168.393 79.9904Q168.197 80 168.001 80L7.999 80Q7.80264 80 7.60651 79.9904Q7.41038 79.9807 7.21496 79.9615Q7.01954 79.9422 6.8253 79.9134Q6.63106 79.8846 6.43847 79.8463Q6.24588 79.808 6.0554 79.7603Q5.86492 79.7126 5.67701 79.6556Q5.4891 79.5986 5.30422 79.5324Q5.11933 79.4662 4.93791 79.3911Q4.7565 79.316 4.57899 79.232Q4.40148 79.148 4.2283 79.0555Q4.05512 78.9629 3.88669 78.862Q3.71826 78.761 3.55499 78.6519Q3.39172 78.5428 3.234 78.4258Q3.07628 78.3089 2.92449 78.1843Q2.7727 78.0597 2.6272 77.9279Q2.4817 77.796 2.34285 77.6571Q2.204 77.5183 2.07213 77.3728Q1.94026 77.2273 1.81569 77.0755Q1.69112 76.9237 1.57414 76.766Q1.45717 76.6083 1.34807 76.445Q1.23898 76.2817 1.13803 76.1133Q1.03708 75.9449 0.944512 75.7717Q0.851946 75.5985 0.76799 75.421Q0.684033 75.2435 0.608888 75.0621Q0.533742 74.8807 0.467589 74.6958Q0.401436 74.5109 0.344434 74.323Q0.287433 74.1351 0.23972 73.9446Q0.192007 73.7541 0.153699 73.5615Q0.11539 73.3689 0.0865771 73.1747Q0.0577644 72.9805 0.0385174 72.785Q0.0192703 72.5896 0.00963514 72.3935Q0 72.1974 0 72.001L0 7.999Q0 7.80264 0.00963514 7.60651Q0.0192703 7.41038 0.0385174 7.21496Q0.0577644 7.01954 0.0865771 6.8253Q0.11539 6.63106 0.153699 6.43847Q0.192007 6.24588 0.23972 6.0554Q0.287433 5.86492 0.344434 5.67701Q0.401436 5.4891 0.467589 5.30422Q0.533742 5.11933 0.608888 4.93791Q0.684033 4.7565 0.76799 4.57899Q0.851946 4.40148 0.944512 4.2283Q1.03708 4.05512 1.13803 3.88669Q1.23898 3.71826 1.34807 3.55499Q1.45717 3.39172 1.57414 3.234Q1.69112 3.07628 1.81569 2.92449Q1.94026 2.7727 2.07213 2.6272Q2.204 2.4817 2.34285 2.34285Q2.4817 2.204 2.6272 2.07213Q2.7727 1.94026 2.92449 1.81569Q3.07628 1.69112 3.234 1.57414Q3.39172 1.45717 3.55499 1.34807Q3.71826 1.23898 3.88669 1.13803Q4.05512 1.03708 4.2283 0.944512Q4.40148 0.851946 4.57899 0.76799Q4.7565 0.684033 4.93791 0.608888Q5.11933 0.533742 5.30422 0.467589Q5.4891 0.401436 5.67701 0.344434Q5.86492 0.287433 6.0554 0.23972Q6.24588 0.192007 6.43847 0.153699Q6.63106 0.11539 6.8253 0.0865771Q7.01954 0.0577644 7.21496 0.0385174Q7.41038 0.0192703 7.60651 0.00963514Q7.80264 0 7.999 0L7.999 0Z" id="Rectangle-40" fill="#D3D3D3" fill-rule="evenodd" stroke="none" />
    <g id="No-Image" transform="translate(34 24)">
      <path d="M15.1787 24.255L11.4189 24.255L5.12402 14.7267L5.12402 24.255L1.36426 24.255L1.36426 8.8131L5.12402 8.8131L11.4189 18.379L11.4189 8.8131L15.1787 8.8131L15.1787 24.255ZM40.3461 24.255L40.3461 8.8131L36.5864 8.8131L36.5864 24.255L40.3461 24.255ZM23.4942 24.4322Q21.6896 24.4322 20.2501 23.6642Q18.8107 22.8907 17.9835 21.462Q17.1617 20.0333 17.1617 18.1158Q17.1617 16.2252 17.9942 14.7858Q18.8321 13.3409 20.2823 12.5729Q21.7379 11.8048 23.5426 11.8048Q25.3419 11.8048 26.7921 12.5729Q28.2477 13.3409 29.0802 14.7858Q29.9181 16.2252 29.9181 18.1158Q29.9181 20.0065 29.0694 21.4513Q28.2262 22.8907 26.7599 23.6642Q25.2989 24.4322 23.4942 24.4322ZM66.3423 14.775Q65.6279 16.2037 65.6279 18.0944Q65.6279 19.985 66.3423 21.4298Q67.0566 22.8693 68.2866 23.6534Q69.5219 24.4322 71.0151 24.4322Q72.3149 24.4322 73.2924 23.9059Q74.27 23.3741 74.8232 22.5148L74.8232 24.255L78.583 24.255L78.583 11.9767L74.8232 11.9767L74.8232 13.7169Q74.2968 12.8575 73.3139 12.3312Q72.3364 11.8048 71.0366 11.8048Q69.5219 11.8048 68.2866 12.5729Q67.0566 13.3409 66.3423 14.775ZM85.9746 11.8048Q87.2744 11.8048 88.252 12.3312Q89.2349 12.8575 89.7613 13.7169L89.7613 11.9767L93.521 11.9767L93.521 24.2335Q93.521 25.9254 92.8496 27.3004Q92.1783 28.6754 90.8033 29.4864Q89.4283 30.3029 87.3819 30.3029Q84.6587 30.3029 82.9615 29.0138Q81.2696 27.7301 81.0279 25.5333L84.7447 25.5333Q84.9219 26.2369 85.5772 26.6398Q86.2378 27.048 87.21 27.048Q88.3755 27.048 89.0684 26.3766Q89.7613 25.7052 89.7613 24.2335L89.7613 22.4933Q89.208 23.3527 88.2412 23.8951Q87.2744 24.4322 85.9746 24.4322Q84.46 24.4322 83.2246 23.6534Q81.9947 22.8693 81.2803 21.4298Q80.5659 19.985 80.5659 18.0944Q80.5659 16.2037 81.2803 14.775Q81.9947 13.3409 83.2246 12.5729Q84.46 11.8048 85.9746 11.8048ZM107.755 19.0182Q107.82 18.4488 107.82 17.9171Q107.82 16.0695 107.041 14.6837Q106.262 13.298 104.877 12.5514Q103.491 11.8048 101.708 11.8048Q99.8814 11.8048 98.4742 12.5729Q97.067 13.3409 96.2828 14.775Q95.504 16.2037 95.504 18.1158Q95.504 20.0333 96.2935 21.462Q97.0885 22.8907 98.4957 23.6642Q99.9029 24.4322 101.708 24.4322Q103.201 24.4322 104.409 23.8844Q105.623 23.3312 106.423 22.3644Q107.229 21.3976 107.535 20.1837L103.534 20.1837Q102.981 21.3707 101.573 21.3707Q100.628 21.3707 99.9781 20.7692Q99.3282 20.1622 99.2423 19.0182L107.755 19.0182ZM58.7385 11.8478Q61.0266 11.8478 62.3801 13.2335Q63.7336 14.6193 63.7336 17.0846L63.7336 24.255L59.9953 24.255L59.9953 17.5895Q59.9953 16.4025 59.3669 15.7526Q58.7385 15.1027 57.6374 15.1027Q56.5417 15.1027 55.9133 15.7526Q55.2849 16.4025 55.2849 17.5895L55.2849 24.255L51.5466 24.255L51.5466 17.5895Q51.5466 16.4025 50.9182 15.7526Q50.2898 15.1027 49.1941 15.1027Q48.093 15.1027 47.4646 15.7526Q46.8362 16.4025 46.8362 17.5895L46.8362 24.255L43.0764 24.255L43.0764 11.9767L46.8362 11.9767L46.8362 13.5182Q47.4109 12.7501 48.3347 12.2989Q49.2585 11.8478 50.4241 11.8478Q51.8098 11.8478 52.9001 12.444Q53.9905 13.0348 54.6028 14.1359Q55.2419 13.1207 56.343 12.4869Q57.4441 11.8478 58.7385 11.8478ZM103.314 15.3927Q103.974 15.962 103.974 16.9288L99.2638 16.9288Q99.4195 15.9191 100.064 15.3712Q100.714 14.818 101.665 14.818Q102.653 14.818 103.314 15.3927ZM23.4942 21.1774Q24.5738 21.1774 25.3312 20.3878Q26.0939 19.5929 26.0939 18.1158Q26.0939 16.6442 25.3526 15.8546Q24.6168 15.0597 23.5426 15.0597Q22.4415 15.0597 21.711 15.8439Q20.9859 16.6227 20.9859 18.1158Q20.9859 19.5929 21.7003 20.3878Q22.42 21.1774 23.4942 21.1774ZM74.039 15.8976Q74.8232 16.7086 74.8232 18.1158Q74.8232 19.5231 74.039 20.3395Q73.2602 21.1505 72.1377 21.1505Q71.0151 21.1505 70.2309 20.3287Q69.4521 19.5016 69.4521 18.0944Q69.4521 16.6871 70.2309 15.8868Q71.0151 15.0812 72.1377 15.0812Q73.2602 15.0812 74.039 15.8976ZM89.7613 18.1158Q89.7613 16.7086 88.9771 15.8976Q88.1983 15.0812 87.0757 15.0812Q85.9532 15.0812 85.169 15.8868Q84.3902 16.6871 84.3902 18.0944Q84.3902 19.5016 85.169 20.3287Q85.9532 21.1505 87.0757 21.1505Q88.1983 21.1505 88.9771 20.3395Q89.7613 19.5231 89.7613 18.1158Z" />
    </g>
  </g>
</svg>